<svg width="95" height="25" viewBox="0 0 95 25" fill="none" xmlns="http://www.w3.org/2000/svg">
<path d="M16.8438 24.1094C16.7083 24.1094 15.2552 23.5625 12.4844 22.4688C9.71354 21.3854 8.02604 20.724 7.42188 20.4844C6.63021 20.151 6.09896 19.9375 5.82812 19.8438C4.07812 19.1354 2.76562 18 1.89062 16.4375C1.02604 14.8646 0.59375 12.8385 0.59375 10.3594C0.59375 7.09896 1.32292 4.61979 2.78125 2.92188C4.23958 1.22396 6.35938 0.375 9.14062 0.375C11.9323 0.375 14.0573 1.22917 15.5156 2.9375C16.9844 4.63542 17.7188 7.10938 17.7188 10.3594C17.7188 12.9844 17.2396 15.1042 16.2812 16.7188C15.3333 18.3229 13.9531 19.3698 12.1406 19.8594V19.9688L17.6094 21.7031C17.8698 21.776 18 21.9115 18 22.1094C18 22.2448 17.9427 22.4792 17.8281 22.8125C17.7135 23.1458 17.5677 23.4427 17.3906 23.7031C17.2135 23.974 17.0312 24.1094 16.8438 24.1094ZM9.14062 18.1406C11.0781 18.1406 12.5729 17.474 13.625 16.1406C14.6771 14.7969 15.2031 12.8698 15.2031 10.3594C15.2031 8.68229 14.9635 7.25521 14.4844 6.07812C14.0156 4.90104 13.3281 4.01042 12.4219 3.40625C11.5156 2.79167 10.4219 2.48438 9.14062 2.48438C7.86979 2.48438 6.78125 2.79167 5.875 3.40625C4.97917 4.01042 4.29167 4.90104 3.8125 6.07812C3.34375 7.25521 3.10938 8.68229 3.10938 10.3594C3.10938 12.8802 3.63021 14.8073 4.67188 16.1406C5.72396 17.474 7.21354 18.1406 9.14062 18.1406ZM23.125 20.0469C22.375 20.0469 22 19.8438 22 19.4375V1.10938C22 0.692708 22.375 0.484375 23.125 0.484375H23.3438C24.0833 0.484375 24.4531 0.692708 24.4531 1.10938V19.4375C24.4531 19.8438 24.0833 20.0469 23.3438 20.0469H23.125ZM28.6875 20.0469C28.2708 20.0469 27.9688 20.0104 27.7812 19.9375C27.5938 19.8542 27.5 19.7344 27.5 19.5781C27.5 19.5052 27.526 19.3802 27.5781 19.2031L34.1562 0.9375C34.2604 0.635417 34.6302 0.484375 35.2656 0.484375H36.0781C36.7135 0.484375 37.0833 0.635417 37.1875 0.9375L43.7656 19.2188C43.8177 19.3333 43.8438 19.4531 43.8438 19.5781C43.8438 19.8906 43.4531 20.0469 42.6719 20.0469H42.4375C41.7917 20.0469 41.4167 19.901 41.3125 19.6094L39.6875 15.0469H31.5312L29.9375 19.6094C29.8438 19.901 29.474 20.0469 28.8281 20.0469H28.6875ZM38.9375 12.9375L36.0312 4.67188C35.9479 4.44271 35.8802 4.18229 35.8281 3.89062C35.776 3.59896 35.7292 3.31771 35.6875 3.04688H35.625C35.5 3.74479 35.3594 4.28646 35.2031 4.67188L32.2969 12.9375H38.9375ZM47.8125 20.0469C47.4167 20.0469 47.1302 20 46.9531 19.9062C46.776 19.8021 46.6875 19.6458 46.6875 19.4375V1.10938C46.6875 0.692708 47.0625 0.484375 47.8125 0.484375H48.3906C48.6823 0.484375 48.9115 0.526042 49.0781 0.609375C49.2552 0.692708 49.4115 0.828125 49.5469 1.01562L58.4219 14.4062L59.25 15.9688V1.10938C59.25 0.692708 59.6146 0.484375 60.3438 0.484375H60.5625C61.2917 0.484375 61.6562 0.692708 61.6562 1.10938V19.4375C61.6562 19.6458 61.5677 19.8021 61.3906 19.9062C61.2135 20 60.9375 20.0469 60.5625 20.0469H60C59.7396 20.0469 59.5312 20.0156 59.375 19.9531C59.2188 19.8906 59.099 19.7917 59.0156 19.6562L49.8594 5.84375L49.1094 4.40625V19.4375C49.1094 19.8438 48.7396 20.0469 48 20.0469H47.8125ZM71.7188 20.0469C71.3333 20.0469 71.0521 20 70.875 19.9062C70.6979 19.8021 70.6094 19.6458 70.6094 19.4375V2.67188H65.2656C65.0677 2.67188 64.9271 2.60417 64.8438 2.46875C64.7604 2.33333 64.7188 2.125 64.7188 1.84375V1.39062C64.7188 1.09896 64.7604 0.890625 64.8438 0.765625C64.9271 0.630208 65.0677 0.5625 65.2656 0.5625H78.2969C78.4948 0.5625 78.6354 0.630208 78.7188 0.765625C78.8021 0.890625 78.8438 1.09896 78.8438 1.39062V1.84375C78.8438 2.125 78.8021 2.33333 78.7188 2.46875C78.6354 2.60417 78.4948 2.67188 78.2969 2.67188H73.0625V19.4375C73.0625 19.8438 72.6875 20.0469 71.9375 20.0469H71.7188Z" fill="#186188"/>
<path d="M79.8125 20.0469C79.3958 20.0469 79.0938 20.0104 78.9062 19.9375C78.7188 19.8542 78.625 19.7344 78.625 19.5781C78.625 19.5052 78.651 19.3802 78.7031 19.2031L85.2812 0.9375C85.3854 0.635417 85.7552 0.484375 86.3906 0.484375H87.2031C87.8385 0.484375 88.2083 0.635417 88.3125 0.9375L94.8906 19.2188C94.9427 19.3333 94.9688 19.4531 94.9688 19.5781C94.9688 19.8906 94.5781 20.0469 93.7969 20.0469H93.5625C92.9167 20.0469 92.5417 19.901 92.4375 19.6094L90.8125 15.0469H82.6562L81.0625 19.6094C80.9688 19.901 80.599 20.0469 79.9531 20.0469H79.8125ZM90.0625 12.9375L87.1562 4.67188C87.0729 4.44271 87.0052 4.18229 86.9531 3.89062C86.901 3.59896 86.8542 3.31771 86.8125 3.04688H86.75C86.625 3.74479 86.4844 4.28646 86.3281 4.67188L83.4219 12.9375H90.0625Z" fill="#E9B839"/>
</svg>
